<svg width="512" height="512" viewBox="0 0 512 512" fill="none" xmlns="http://www.w3.org/2000/svg">
  <defs>
    <linearGradient id="bg" x1="76" y1="40" x2="450" y2="472" gradientUnits="userSpaceOnUse">
      <stop offset="0" stop-color="#08111F"/>
      <stop offset="0.56" stop-color="#101A30"/>
      <stop offset="1" stop-color="#050B16"/>
    </linearGradient>
    <radialGradient id="glowWarm" cx="0" cy="0" r="1" gradientUnits="userSpaceOnUse" gradientTransform="translate(148 130) rotate(38) scale(170 170)">
      <stop offset="0" stop-color="#FB7185" stop-opacity="0.52"/>
      <stop offset="0.55" stop-color="#F59E0B" stop-opacity="0.18"/>
      <stop offset="1" stop-color="#F59E0B" stop-opacity="0"/>
    </radialGradient>
    <radialGradient id="glowCool" cx="0" cy="0" r="1" gradientUnits="userSpaceOnUse" gradientTransform="translate(372 400) rotate(-35) scale(190 190)">
      <stop offset="0" stop-color="#38BDF8" stop-opacity="0.28"/>
      <stop offset="0.62" stop-color="#38BDF8" stop-opacity="0.08"/>
      <stop offset="1" stop-color="#38BDF8" stop-opacity="0"/>
    </radialGradient>
    <linearGradient id="card" x1="182" y1="156" x2="362" y2="360" gradientUnits="userSpaceOnUse">
      <stop offset="0" stop-color="#17233B"/>
      <stop offset="0.52" stop-color="#0F172A"/>
      <stop offset="1" stop-color="#0A1220"/>
    </linearGradient>
    <linearGradient id="ring" x1="166" y1="162" x2="338" y2="350" gradientUnits="userSpaceOnUse">
      <stop offset="0" stop-color="#F97316"/>
      <stop offset="0.52" stop-color="#FB7185"/>
      <stop offset="1" stop-color="#34D399"/>
    </linearGradient>
    <linearGradient id="pulse" x1="150" y1="208" x2="360" y2="316" gradientUnits="userSpaceOnUse">
      <stop offset="0" stop-color="#F8FAFC"/>
      <stop offset="0.42" stop-color="#FDE68A"/>
      <stop offset="1" stop-color="#FFFFFF"/>
    </linearGradient>
    <linearGradient id="dial" x1="186" y1="178" x2="324" y2="332" gradientUnits="userSpaceOnUse">
      <stop offset="0" stop-color="#111B31"/>
      <stop offset="1" stop-color="#07101E"/>
    </linearGradient>
    <filter id="softShadow" x="0" y="0" width="512" height="512" filterUnits="userSpaceOnUse">
      <feDropShadow dx="0" dy="20" stdDeviation="20" flood-color="#020617" flood-opacity="0.35"/>
    </filter>
    <filter id="glow" x="0" y="0" width="512" height="512" filterUnits="userSpaceOnUse">
      <feGaussianBlur stdDeviation="4.5" result="blur"/>
      <feMerge>
        <feMergeNode in="blur"/>
        <feMergeNode in="SourceGraphic"/>
      </feMerge>
    </filter>
  </defs>

  <rect width="512" height="512" rx="118" fill="url(#bg)"/>
  <rect width="512" height="512" rx="118" fill="url(#glowWarm)"/>
  <rect width="512" height="512" rx="118" fill="url(#glowCool)"/>

  <g filter="url(#softShadow)" opacity="0.98">
    <g transform="translate(318 145) rotate(11)">
      <rect x="-84" y="-92" width="168" height="188" rx="34" fill="url(#card)" stroke="#FFFFFF" stroke-opacity="0.10" stroke-width="2"/>
      <rect x="-54" y="-52" width="108" height="10" rx="5" fill="#5EEAD4" fill-opacity="0.22"/>
      <rect x="-54" y="-26" width="86" height="10" rx="5" fill="#F8FAFC" fill-opacity="0.14"/>
      <rect x="-54" y="0" width="96" height="10" rx="5" fill="#F59E0B" fill-opacity="0.18"/>
      <rect x="-54" y="26" width="72" height="10" rx="5" fill="#F8FAFC" fill-opacity="0.12"/>
    </g>

    <circle cx="250" cy="268" r="132" fill="url(#dial)" stroke="#FFFFFF" stroke-opacity="0.07" stroke-width="2"/>
    <circle cx="250" cy="268" r="120" fill="none" stroke="url(#ring)" stroke-width="18" stroke-linecap="round" opacity="0.95"/>
    <circle cx="250" cy="268" r="88" fill="none" stroke="#FFFFFF" stroke-opacity="0.08" stroke-width="2"/>

    <rect x="235" y="114" width="30" height="18" rx="9" fill="#F8FAFC" fill-opacity="0.92"/>
    <rect x="228" y="104" width="12" height="18" rx="6" fill="#F8FAFC" fill-opacity="0.70"/>
    <rect x="272" y="104" width="12" height="18" rx="6" fill="#F8FAFC" fill-opacity="0.28"/>

    <path
      d="M158 272H194L214 244L236 298L258 214L282 292L304 258H354"
      stroke="url(#pulse)"
      stroke-width="20"
      stroke-linecap="round"
      stroke-linejoin="round"
      filter="url(#glow)"
    />
    <path
      d="M158 272H194L214 244L236 298L258 214L282 292L304 258H354"
      stroke="#F8FAFC"
      stroke-opacity="0.92"
      stroke-width="10"
      stroke-linecap="round"
      stroke-linejoin="round"
    />
    <circle cx="306" cy="258" r="6" fill="#FDE68A"/>
  </g>
</svg>
